<?xml version="1.0" encoding="utf-8"?>
<!-- Generator: Adobe Illustrator 24.0.0, SVG Export Plug-In . SVG Version: 6.00 Build 0)  -->
<svg version="1.1" id="Layer_1" xmlns="http://www.w3.org/2000/svg" xmlns:xlink="http://www.w3.org/1999/xlink" x="0px" y="0px"
	 viewBox="0 0 32 32" style="enable-background:new 0 0 32 32;" xml:space="preserve">
<style type="text/css">
	.st0{display:none;}
	.st1{display:inline;}
	.st2{fill:#4FA5D8;}
	.st3{fill:#FFFFFF;}
	.st4{display:none;fill:none;}
</style>
<title>Monkai Favicon</title>
<g class="st0">
	<g id="Layer_1_1_" class="st1">
		<path class="st2" d="M25.8,12.1l1,2.4c0,0,1.1,1.7-0.3,2.9s-3.2,1.3-4.1-0.2c-0.7-1.4-1.4-2.8-2-4.3c0.1-0.9,0.8-1.7,1.6-2
			C23.5,10.5,25.4,11.3,25.8,12.1z"/>
		<path class="st3" d="M26.4,13.6c-0.1-0.3-0.8-0.6-1-0.8c-5.6-3.1-4.5,8.6-8.9,8.4c-1.2,0-2-1.2-2.6-2.1c-0.8-1.3-1.1-2.8-1.9-4.1
			c0,0-0.4-0.6-0.6,0.2s-4.1,9.2-4.1,9.2c-0.5,1-1.6,1.6-2.7,1.5c-1.3-0.2-2.3-1.2-2.4-2.6c0.2-1.1,0.6-2.1,1.2-3.1
			c1.1-2.2,2.1-4.5,3.2-6.7c0.7-1.4,1.4-3,2.1-4.5c0.6-1.2,1.3-2.8,2.7-2.9C13.2,5.9,14,7.6,14.7,9c0.4,0.9,0.7,1.9,1.2,2.8
			c0.3,0.5,0.4,0.9,0.9,0.4c0.4-0.7,0.7-1.5,0.9-2.3c0.5-1.1,1.3-3.2,2.6-3.7c1.2-0.3,2.5,0.2,3.1,1.3C23.9,8.2,26.4,13.6,26.4,13.6
			z"/>
		<circle class="st2" cx="27.3" cy="22.1" r="2.4"/>
	</g>
</g>
<g>
	<polygon class="st4" points="16,19.7 23.1,12.7 23.1,12.6 	"/>
	<polygon class="st3" points="30.2,2.2 23.4,2.2 16,9.6 8.6,2.2 1.8,2.2 1.8,22.6 8.9,29.7 8.9,12.6 16,19.7 23.1,12.6 23.1,12.7 
		30.2,5.6 	"/>
	<polygon class="st2" points="23.1,12.6 23.1,29.7 30.2,22.5 30.2,5.6 	"/>
</g>
</svg>
