<svg width="30" height="23" viewBox="0 0 30 23" fill="none" xmlns="http://www.w3.org/2000/svg">
<path d="M19.6015 22.5292C19.6015 22.5292 26.9156 15.2086 29.7659 12.3567C30.0031 12.1194 30.1217 11.8074 30.1217 11.4954C30.1217 11.1834 30.0031 10.8731 29.7659 10.6342C26.9172 7.78393 19.6015 0.46493 19.6015 0.46493C19.3675 0.229305 19.0587 0.112305 18.75 0.112305C18.4364 0.112305 18.1244 0.232554 17.8855 0.471429C17.4094 0.945929 17.4061 1.71618 17.879 2.18743L25.9682 10.2767H2.09375C1.421 10.2767 0.875 10.8227 0.875 11.4954C0.875 12.1682 1.421 12.7142 2.09375 12.7142H25.9682L17.8774 20.805C17.4077 21.2747 17.4126 22.0433 17.8871 22.5178C18.1276 22.7583 18.4412 22.8786 18.7532 22.8786C19.062 22.8786 19.3675 22.7616 19.6015 22.5292Z" fill="#DAEAF7"/>
</svg>
