<svg width="30" height="23" viewBox="0 0 30 23" fill="none" xmlns="http://www.w3.org/2000/svg">
<path d="M19.5995 22.5292C19.5995 22.5292 26.9137 15.2086 29.7639 12.3567C30.0012 12.1194 30.1198 11.8074 30.1198 11.4954C30.1198 11.1834 30.0012 10.8731 29.7639 10.6342C26.9153 7.78393 19.5995 0.46493 19.5995 0.46493C19.3655 0.229305 19.0568 0.112305 18.748 0.112305C18.4344 0.112305 18.1224 0.232554 17.8835 0.471429C17.4074 0.945929 17.4042 1.71618 17.877 2.18743L25.9663 10.2767H2.0918C1.41905 10.2767 0.873047 10.8227 0.873047 11.4954C0.873047 12.1682 1.41905 12.7142 2.0918 12.7142H25.9663L17.8754 20.805C17.4058 21.2747 17.4107 22.0433 17.8852 22.5178C18.1257 22.7583 18.4393 22.8786 18.7513 22.8786C19.06 22.8786 19.3655 22.7616 19.5995 22.5292Z" fill="black"/>
</svg>
