<svg width="42" height="42" viewBox="0 0 42 42" fill="none" xmlns="http://www.w3.org/2000/svg">
<circle cx="21" cy="21" r="21" fill="white"/>
<path d="M31.3255 27.3L30.363 25.8125C28.7005 23.3625 27.8255 20.475 27.8255 17.5C27.8255 14.35 25.7255 11.8125 22.9255 10.9375C22.663 10.15 21.8755 9.625 21.0005 9.625C20.1255 9.625 19.338 10.15 19.0755 10.9375C16.2755 11.8125 14.1755 14.35 14.1755 17.5C14.1755 20.475 13.3005 23.3625 11.638 25.8125L10.6755 27.3C10.238 28 10.6755 28.875 11.5505 28.875H30.4505C31.3255 28.875 31.763 28 31.3255 27.3Z" stroke="#00022B" stroke-opacity="0.7" stroke-width="2" stroke-miterlimit="10" stroke-linecap="round" stroke-linejoin="round"/>
<path d="M24.5 28.875C24.5 30.8 22.925 32.375 21 32.375C19.075 32.375 17.5 30.8 17.5 28.875" stroke="#00022B" stroke-opacity="0.7" stroke-width="2" stroke-miterlimit="10" stroke-linecap="round" stroke-linejoin="round"/>
</svg>
