<svg width="28" height="28" viewBox="0 0 28 28" fill="none" xmlns="http://www.w3.org/2000/svg">
<path d="M24.3255 20.3L23.363 18.8125C21.7005 16.3625 20.8255 13.475 20.8255 10.5C20.8255 7.35 18.7255 4.8125 15.9255 3.9375C15.663 3.15 14.8755 2.625 14.0005 2.625C13.1255 2.625 12.338 3.15 12.0755 3.9375C9.27554 4.8125 7.17554 7.35 7.17554 10.5C7.17554 13.475 6.30054 16.3625 4.63804 18.8125L3.67554 20.3C3.23804 21 3.67554 21.875 4.55054 21.875H23.4505C24.3255 21.875 24.763 21 24.3255 20.3Z" stroke="white" stroke-width="2" stroke-miterlimit="10" stroke-linecap="round" stroke-linejoin="round"/>
<path d="M17.5 21.875C17.5 23.8 15.925 25.375 14 25.375C12.075 25.375 10.5 23.8 10.5 21.875" stroke="white" stroke-width="2" stroke-miterlimit="10" stroke-linecap="round" stroke-linejoin="round"/>
</svg>
