<svg width="24" height="24" viewBox="0 0 24 24" fill="none" xmlns="http://www.w3.org/2000/svg">
<circle cx="12" cy="12" r="12" fill="#1F2034"/>
<path d="M19.4388 10.457V8.48602C19.4383 8.07244 19.2737 7.67596 18.9813 7.38351C18.6888 7.09107 18.2924 6.92654 17.8788 6.92602H17.8268L15.8408 3.01602C15.7685 2.8737 15.6689 2.74701 15.5477 2.6432C15.4265 2.53938 15.286 2.46047 15.1342 2.41097C14.9825 2.36148 14.8225 2.34236 14.6633 2.35472C14.5042 2.36708 14.3491 2.41068 14.2068 2.48302L5.75378 6.77602C5.67463 6.81794 5.60021 6.86823 5.53178 6.92602H5.36278C4.94886 6.92602 4.55186 7.09031 4.25899 7.38281C3.96611 7.67531 3.80131 8.07209 3.80078 8.48602V17.305C3.80131 17.7188 3.96597 18.1154 4.25863 18.4079C4.55129 18.7003 4.94803 18.8647 5.36178 18.865H17.8788C18.2924 18.8645 18.6888 18.7 18.9813 18.4075C19.2737 18.1151 19.4383 17.7186 19.4388 17.305V15.277C19.6939 15.2692 19.936 15.1625 20.1139 14.9794C20.2917 14.7963 20.3914 14.5513 20.3918 14.296V11.439C20.3914 11.1837 20.2918 10.9385 20.1139 10.7552C19.9361 10.572 19.694 10.4651 19.4388 10.457ZM17.0458 6.92602H12.4708L16.1648 5.19302L17.0458 6.92602ZM14.5218 3.10002C14.5826 3.06878 14.649 3.04987 14.7172 3.04437C14.7853 3.03888 14.8539 3.04691 14.919 3.06801C14.984 3.0891 15.0443 3.12284 15.0962 3.16729C15.1482 3.21174 15.1909 3.26602 15.2218 3.32702L15.9008 4.67302L11.1008 6.92602H7.00078L14.5218 3.10002ZM17.8788 17.932H5.36278C5.19534 17.932 5.03474 17.8656 4.91624 17.7473C4.79775 17.629 4.73105 17.4685 4.73078 17.301V8.48602C4.73105 8.31857 4.79775 8.15808 4.91624 8.03977C5.03474 7.92146 5.19534 7.85502 5.36278 7.85502H17.8788C18.0461 7.85528 18.2064 7.92185 18.3247 8.04012C18.443 8.1584 18.5095 8.31875 18.5098 8.48602V10.456H16.1308C15.5359 10.4565 14.9655 10.6932 14.545 11.1139C14.1244 11.5347 13.888 12.1051 13.8878 12.7V13.036C13.888 13.6309 14.1244 14.2014 14.545 14.6221C14.9655 15.0429 15.5359 15.2795 16.1308 15.28H18.5098V17.306C18.5093 17.4731 18.4426 17.6332 18.3243 17.7513C18.2061 17.8693 18.0459 17.9358 17.8788 17.936V17.932ZM19.4618 14.3C19.4618 14.3142 19.4562 14.3278 19.4463 14.3378C19.4364 14.3479 19.4229 14.3538 19.4088 14.354H16.1308C15.7823 14.3535 15.4482 14.2147 15.2019 13.9682C14.9555 13.7217 14.817 13.3875 14.8168 13.039V12.7C14.817 12.3516 14.9556 12.0175 15.2019 11.7712C15.4483 11.5248 15.7824 11.3863 16.1308 11.386H19.4088C19.4229 11.3863 19.4364 11.3921 19.4463 11.4022C19.4562 11.4123 19.4618 11.4259 19.4618 11.44V14.3ZM17.1398 12.81C17.1398 12.9409 17.101 13.0689 17.0282 13.1778C16.9555 13.2867 16.8521 13.3715 16.7311 13.4216C16.6102 13.4717 16.477 13.4848 16.3486 13.4593C16.2202 13.4338 16.1023 13.3707 16.0097 13.2781C15.9171 13.1855 15.854 13.0676 15.8285 12.9392C15.803 12.8107 15.8161 12.6776 15.8662 12.5567C15.9163 12.4357 16.0011 12.3323 16.11 12.2596C16.2189 12.1868 16.3468 12.148 16.4778 12.148C16.6527 12.148 16.8204 12.2172 16.9445 12.3405C17.0685 12.4638 17.1387 12.6311 17.1398 12.806V12.81Z" fill="white"/>
</svg>
