<svg width="20" height="20" viewBox="0 0 20 20" fill="none" xmlns="http://www.w3.org/2000/svg">
<path d="M17.4388 9.45702V7.48602C17.4383 7.07244 17.2737 6.67596 16.9813 6.38351C16.6888 6.09107 16.2924 5.92654 15.8788 5.92602H15.8268L13.8408 2.01602C13.7685 1.8737 13.6689 1.74701 13.5477 1.6432C13.4265 1.53938 13.286 1.46047 13.1342 1.41097C12.9825 1.36148 12.8225 1.34236 12.6633 1.35472C12.5042 1.36708 12.3491 1.41068 12.2068 1.48302L3.75378 5.77602C3.67463 5.81794 3.60021 5.86823 3.53178 5.92602H3.36278C2.94886 5.92602 2.55186 6.09031 2.25899 6.38281C1.96611 6.67531 1.80131 7.07209 1.80078 7.48602V16.305C1.80131 16.7188 1.96597 17.1154 2.25863 17.4079C2.55129 17.7003 2.94803 17.8647 3.36178 17.865H15.8788C16.2924 17.8645 16.6888 17.7 16.9813 17.4075C17.2737 17.1151 17.4383 16.7186 17.4388 16.305V14.277C17.6939 14.2692 17.936 14.1625 18.1139 13.9794C18.2917 13.7963 18.3914 13.5513 18.3918 13.296V10.439C18.3914 10.1837 18.2918 9.93848 18.1139 9.75524C17.9361 9.572 17.694 9.46506 17.4388 9.45702ZM15.0458 5.92602H10.4708L14.1648 4.19302L15.0458 5.92602ZM12.5218 2.10002C12.5826 2.06878 12.649 2.04987 12.7172 2.04437C12.7853 2.03888 12.8539 2.04691 12.919 2.06801C12.984 2.0891 13.0443 2.12284 13.0962 2.16729C13.1482 2.21174 13.1909 2.26602 13.2218 2.32702L13.9008 3.67302L9.10078 5.92602H5.00078L12.5218 2.10002ZM15.8788 16.932H3.36278C3.19534 16.932 3.03474 16.8656 2.91624 16.7473C2.79775 16.629 2.73105 16.4685 2.73078 16.301V7.48602C2.73105 7.31857 2.79775 7.15808 2.91624 7.03977C3.03474 6.92146 3.19534 6.85502 3.36278 6.85502H15.8788C16.0461 6.85528 16.2064 6.92185 16.3247 7.04012C16.443 7.1584 16.5095 7.31875 16.5098 7.48602V9.45602H14.1308C13.5359 9.45654 12.9655 9.69317 12.545 10.1139C12.1244 10.5347 11.888 11.1051 11.8878 11.7V12.036C11.888 12.6309 12.1244 13.2014 12.545 13.6221C12.9655 14.0429 13.5359 14.2795 14.1308 14.28H16.5098V16.306C16.5093 16.4731 16.4426 16.6332 16.3243 16.7513C16.2061 16.8693 16.0459 16.9358 15.8788 16.936V16.932ZM17.4618 13.3C17.4618 13.3142 17.4562 13.3278 17.4463 13.3378C17.4364 13.3479 17.4229 13.3538 17.4088 13.354H14.1308C13.7823 13.3535 13.4482 13.2147 13.2019 12.9682C12.9555 12.7217 12.817 12.3875 12.8168 12.039V11.7C12.817 11.3516 12.9556 11.0175 13.2019 10.7712C13.4483 10.5248 13.7824 10.3863 14.1308 10.386H17.4088C17.4229 10.3863 17.4364 10.3921 17.4463 10.4022C17.4562 10.4123 17.4618 10.4259 17.4618 10.44V13.3ZM15.1398 11.81C15.1398 11.9409 15.101 12.0689 15.0282 12.1778C14.9555 12.2867 14.8521 12.3715 14.7311 12.4216C14.6102 12.4717 14.477 12.4848 14.3486 12.4593C14.2202 12.4338 14.1023 12.3707 14.0097 12.2781C13.9171 12.1855 13.854 12.0676 13.8285 11.9392C13.803 11.8107 13.8161 11.6776 13.8662 11.5567C13.9163 11.4357 14.0011 11.3323 14.11 11.2596C14.2189 11.1868 14.3468 11.148 14.4778 11.148C14.6527 11.148 14.8204 11.2172 14.9445 11.3405C15.0685 11.4638 15.1387 11.6311 15.1398 11.806V11.81Z" fill="#121328"/>
</svg>
